<svg id="Camada_1" data-name="Camada 1" xmlns="http://www.w3.org/2000/svg" viewBox="0 0 833.3 671.04"><defs><style>.cls-1{font-size:99.91px;font-family:Montserrat-Regular, Montserrat;letter-spacing:0.14em;}.cls-1,.cls-4{fill:#ebf4eb;}.cls-2{letter-spacing:0.2em;}.cls-3{letter-spacing:0.23em;}</style></defs><title>Logo-Versões</title><text class="cls-1" transform="translate(38.64 669.37)">4<tspan class="cls-2" x="80.43" y="0">Y</tspan><tspan class="cls-3" x="163.85" y="0">OURLIFE</tspan></text><path class="cls-4" d="M317.29,501.35c-4.54-7.26,2.83-8.44,6.12-11.14C400,427.43,449.65,346.82,479.31,253.33c6-18.93,15.26-32.32,35.87-34.16,15.91-1.43,29.1,6.18,36.16,19.5,8.69,16.42,4,32.34-7.12,47.4-58.81,79.83-120.06,157.1-208.08,207.6-5.72,3.29-11.18,9.5-18.85,7.68"/><path class="cls-4" d="M639.86,118.36c-105.74,20.55-199,64.5-274.67,143.17-18.16,18.9-33.82,18.28-48.19,2.58-15.46-16.87-9.07-30.67,5.85-43.51C393.61,159.71,548,108.94,639.86,118.36Z"/><path class="cls-4" d="M467.58,65.35c.33,28-21.46,50.9-48.94,51.49-29.58.64-52.5-21.06-52.92-50.09-.4-27.77,21.38-50.94,48.91-52C442.87,13.6,467.24,36.91,467.58,65.35Z"/></svg>