<svg id="Camada_1" data-name="Camada 1" xmlns="http://www.w3.org/2000/svg" viewBox="0 0 334.87 289.81"><defs><style>.cls-1,.cls-2{fill:#ebf4eb;}.cls-2{font-size:42.08px;font-family:Montserrat-Regular, Montserrat;letter-spacing:0.14em;}.cls-3{letter-spacing:0.2em;}.cls-4{letter-spacing:0.23em;}</style></defs><title>Logo-Versões</title><path class="cls-1" d="M125.59,220.18c-1.92-3.06,1.19-3.56,2.58-4.69,32.25-26.44,53.16-60.39,65.65-99.77,2.53-8,6.43-13.61,15.11-14.39a15.17,15.17,0,0,1,15.23,8.22c3.66,6.92,1.67,13.62-3,20-24.77,33.62-50.57,66.17-87.63,87.43-2.41,1.39-4.71,4-7.94,3.24"/><path class="cls-1" d="M261.44,58.88c-44.53,8.65-83.82,27.16-115.68,60.3-7.65,7.95-14.24,7.7-20.3,1.08-6.5-7.1-3.82-12.91,2.47-18.32C157.73,76.3,222.73,54.91,261.44,58.88Z"/><path class="cls-1" d="M188.88,36.55a21.24,21.24,0,0,1-20.61,21.69c-12.46.27-22.11-8.87-22.29-21.1a21.45,21.45,0,1,1,42.9-.59Z"/><text class="cls-2" transform="translate(8.23 287.94)">4<tspan class="cls-3" x="33.87" y="0">Y</tspan><tspan class="cls-4" x="69.01" y="0">OURLIFE</tspan></text></svg>