<svg id="Camada_1" data-name="Camada 1" xmlns="http://www.w3.org/2000/svg" viewBox="0 0 443.52 104.44"><defs><style>.cls-1{font-size:42.08px;font-family:Montserrat-Regular, Montserrat;letter-spacing:0.14em;}.cls-1,.cls-4{fill:#ebf4eb;}.cls-2{letter-spacing:0.2em;}.cls-3{letter-spacing:0.23em;}</style></defs><title>Logo-Versões</title><text class="cls-1" transform="translate(103.64 76.46)">4<tspan class="cls-2" x="33.87" y="0">Y</tspan><tspan class="cls-3" x="69.01" y="0">OURLIFE</tspan></text><path class="cls-4" d="M31.81,104.37c-.92-1.47.57-1.7,1.24-2.25,15.51-12.71,25.56-29,31.57-48,1.21-3.84,3.09-6.55,7.26-6.92a7.28,7.28,0,0,1,7.32,3.95c1.76,3.32.8,6.55-1.44,9.6C65.85,77,53.45,92.6,35.63,102.82c-1.16.67-2.27,1.92-3.82,1.55"/><path class="cls-4" d="M97.12,26.83C75.71,31,56.83,39.89,41.51,55.82c-3.68,3.82-6.85,3.7-9.76.52-3.13-3.41-1.83-6.21,1.19-8.81C47.26,35.2,78.51,24.92,97.12,26.83Z"/><path class="cls-4" d="M62.24,16.1a10.31,10.31,0,0,1-20.62.28,10.31,10.31,0,1,1,20.62-.28Z"/></svg>