<svg id="Camada_1" data-name="Camada 1" xmlns="http://www.w3.org/2000/svg" viewBox="0 0 126.72 135.32"><defs><style>.cls-1{fill:#ebf4eb;}</style></defs><title>Logo-Versões</title><path class="cls-1" d="M40.07,122c-1-1.56.61-1.81,1.32-2.39,16.45-13.49,27.11-30.8,33.48-50.88,1.29-4.07,3.28-6.94,7.71-7.34a7.73,7.73,0,0,1,7.76,4.19c1.87,3.53.85,7-1.53,10.18C76.18,92.94,63,109.53,44.12,120.38c-1.23.7-2.4,2-4,1.65"/><path class="cls-1" d="M109.35,39.77c-22.71,4.42-42.74,13.86-59,30.75-3.9,4.06-7.26,3.93-10.35.56-3.32-3.63-1.95-6.59,1.26-9.35C56.46,48.65,89.61,37.75,109.35,39.77Z"/><path class="cls-1" d="M72.35,28.39a10.94,10.94,0,0,1-21.87.3,10.94,10.94,0,1,1,21.87-.3Z"/></svg>